<?xml version="1.0" standalone="no"?>
<!DOCTYPE svg PUBLIC "-//W3C//DTD SVG 1.1//EN" "http://www.w3.org/Graphics/SVG/1.1/DTD/svg11.dtd"><svg class="icon" width="200px" height="200.00px" viewBox="0 0 1024 1024" version="1.1" xmlns="http://www.w3.org/2000/svg">
  <path d="M818.051879 403.300848c-47.848727-54.489212-130.916848-137.619394-185.188849-185.250909l-11.077818-9.743515C594.168242 184.009697 557.319758 170.666667 518.019879 170.666667c-39.160242 0-76.024242 13.374061-103.734303 37.639757l-11.062303 9.728c-54.272 47.678061-137.386667 130.792727-185.188849 185.266424l-9.728 11.077819c-50.191515 57.142303-50.191515 150.093576 0 207.282424l9.728 11.077818c47.771152 54.458182 130.823758 137.541818 185.188849 185.250909l11.062303 9.743515c27.663515 24.312242 64.48097 37.639758 103.780848 37.639758 39.253333 0 76.117333-13.374061 103.765334-37.639758l11.031272-9.728 6.423273-5.647515c17.190788-15.018667 25.010424-21.876364 49.152-45.583515l5.694061-5.647515-0.868849-0.96194c4.809697-9.712485 1.706667-21.504-7.261091-27.616969a22.434909 22.434909 0 0 0-28.73406 2.746182c-2.296242 2.172121-34.226424 32.116364-53.884122 49.446787l-11.077818 9.728c-19.533576 17.113212-45.893818 26.484364-74.24 26.484364-28.361697 0-54.768485-9.417697-74.255515-26.484364l-11.108848-9.774545c-53.185939-46.669576-134.423273-127.953455-181.108364-181.185939l-9.712485-11.062303c-17.035636-19.409455-26.453333-45.847273-26.453333-74.426182 0-28.563394 9.417697-55.016727 26.453333-74.426182l9.712485-11.062303C298.278788 379.298909 379.562667 298.046061 432.748606 251.345455l11.015758-9.728c19.549091-17.113212 45.909333-26.577455 74.255515-26.577455 28.392727 0 54.75297 9.464242 74.24 26.577455l11.077818 9.728c53.232485 46.700606 134.469818 128 181.154909 181.139393l9.681455 11.108849c35.467636 40.385939 35.591758 111.243636 0.217212 148.635151l-5.60097 5.942304c-15.949576 16.942545-25.63103 27.229091-35.777939 30.254545-9.650424 2.870303-21.845333-0.155152-45.118061-11.279515-38.818909-18.494061-93.789091-49.493333-112.888242-60.35394 7.726545-15.158303 25.444848-52.286061 33.776484-89.444848l2.265213-9.991758h-95.356122v-11.636363h121.359516v-44.373334h-121.359516v-56.009697h-44.544v56.009697H369.726061v44.373334h121.359515v11.682909h-93.354667v44.373333H565.837576c-3.599515 11.248485-10.286545 25.196606-15.018667 34.304-17.37697-6.718061-63.301818-22.652121-110.545454-22.652121-29.789091 0-54.846061 7.928242-72.517819 23.00897-17.578667 14.894545-26.825697 35.560727-26.825697 59.872969 0 24.312242 8.843636 45.102545 25.662061 60.121212 17.190788 15.422061 41.549576 23.552 70.593939 23.552 33.512727 0 68.266667-14.677333 100.476122-42.387393 12.598303-10.860606 24.017455-22.838303 34.210909-35.871031a8807.641212 8807.641212 0 0 0 119.668363 64.620606c31.992242 16.880485 54.489212 20.231758 75.155394 11.155394 19.673212-8.595394 36.910545-28.237576 60.788364-55.451151l0.341333-0.434425c50.113939-57.095758 50.113939-150.093576-0.077576-207.235878l-9.681454-11.077819z" fill="#444444" />
  <path d="M385.551515 596.309333a37.034667 37.034667 0 0 1 9.557333-24.281212c8.626424-9.417697 22.264242-14.196364 40.494546-14.196363 39.222303 0 74.472727 13.296485 90.499879 20.417939-14.553212 16.92703-51.929212 55.823515-89.708606 55.823515-47.197091 0-50.843152-28.904727-50.843152-37.763879z" fill="#50C3A0" />
</svg>