<?xml version="1.0" standalone="no"?>
<!DOCTYPE svg PUBLIC "-//W3C//DTD SVG 1.1//EN" "http://www.w3.org/Graphics/SVG/1.1/DTD/svg11.dtd"><svg class="icon" width="200px" height="200.00px" viewBox="0 0 1024 1024" version="1.1" xmlns="http://www.w3.org/2000/svg">
  <path d="M321.613576 655.251394h8.145454v35.033212a17.532121 17.532121 0 0 0 17.547637 17.563152 17.532121 17.532121 0 0 0 17.563151-17.563152v-35.033212h179.618909a17.532121 17.532121 0 0 0 17.563152-17.547636 17.532121 17.532121 0 0 0-17.563152-17.563152H321.629091a55.420121 55.420121 0 0 1-55.342546-55.32703v-51.479273a55.420121 55.420121 0 0 1 55.342546-55.32703h189.564121a17.532121 17.532121 0 0 0 17.563152-17.563152 17.532121 17.532121 0 0 0-17.563152-17.547636H344.250182a106.371879 106.371879 0 0 1 106.278788-105.099637h53.837575a17.532121 17.532121 0 0 0 17.547637-17.563151 17.532121 17.532121 0 0 0-17.547637-17.547636h-53.837575c-77.901576 0-141.218909 63.239758-141.374061 141.063757a90.499879 90.499879 0 0 0-77.917091 89.584485v51.479273a90.406788 90.406788 0 0 0 90.375758 90.453333" fill="#444444" />
  <path d="M338.881939 575.767273a39.656727 39.656727 0 1 0 30.363152-73.278061 39.656727 39.656727 0 0 0-30.363152 73.278061" fill="#444444" />
  <path d="M223.325091 751.259152H188.214303C178.501818 751.259152 170.666667 759.171879 170.666667 768.822303c0 9.619394 7.912727 17.547636 17.547636 17.547636h35.110788c9.650424 0 17.563152-7.912727 17.563151-17.547636 0-9.650424-7.912727-17.563152-17.563151-17.563151m625.012364 0h-35.110788c-9.650424 0-17.563152 7.912727-17.563152 17.563151 0 9.619394 7.912727 17.547636 17.563152 17.547636h35.110788c9.619394 0 17.547636-7.912727 17.547636-17.547636 0-9.650424-7.912727-17.563152-17.547636-17.563151m-84.324849 0H272.446061c-9.619394 0-17.547636 7.912727-17.547637 17.563151 0 9.619394 7.912727 17.547636 17.547637 17.547636h491.535515c9.650424 0 17.563152-7.912727 17.563151-17.547636 0-9.650424-7.835152-17.563152-17.563151-17.563151m-154.934303-467.93697v44.978424a58.957576 58.957576 0 0 0 58.94206 58.926546 58.957576 58.957576 0 0 0 58.926546-58.926546v-44.993939a102.353455 102.353455 0 0 1 42.945939 83.161212 102.043152 102.043152 0 0 1-52.751515 89.258666c-5.554424 3.056485-9.076364 9.014303-9.076364 15.36v191.146667a32.892121 32.892121 0 0 1-32.845575 32.830061h-18.245819a32.892121 32.892121 0 0 1-32.845575-32.830061V468.976485c0-6.206061-3.211636-11.915636-8.533334-15.049697a101.298424 101.298424 0 0 1-49.617454-87.458909 102.493091 102.493091 0 0 1 43.101091-83.161212m-19.983515 195.149575V662.233212a68.033939 68.033939 0 0 0 67.956363 67.956364h18.261334a68.033939 68.033939 0 0 0 67.940848-67.956364V480.969697a137.060848 137.060848 0 0 0 61.827879-114.501818 137.619394 137.619394 0 0 0-89.56897-128.620606 17.532121 17.532121 0 0 0-23.660606 16.44606v74.007273a23.815758 23.815758 0 1 1-47.662545 0V254.308848c0-5.709576-2.808242-11.124364-7.524849-14.413575a17.423515 17.423515 0 0 0-16.135757-2.032485C566.908121 257.598061 530.928485 309.325576 530.928485 366.467879c0 44.435394 22.109091 86.434909 58.150788 111.988363" fill="#444444" />
  <path d="M609.062788 283.306667v44.993939a58.957576 58.957576 0 0 0 58.94206 58.926546 58.957576 58.957576 0 0 0 58.926546-58.926546v-44.993939a102.353455 102.353455 0 0 1 42.945939 83.161212 102.043152 102.043152 0 0 1-52.751515 89.258666c-5.554424 3.056485-9.076364 9.014303-9.076363 15.36v191.146667a32.892121 32.892121 0 0 1-32.845576 32.830061h-18.245818a32.892121 32.892121 0 0 1-32.845576-32.830061V468.976485c0-6.206061-3.211636-11.915636-8.533333-15.049697a101.298424 101.298424 0 0 1-49.617455-87.458909 102.493091 102.493091 0 0 1 43.101091-83.161212" fill="#50C3A0" />
</svg>