<?xml version="1.0" standalone="no"?>
<!DOCTYPE svg PUBLIC "-//W3C//DTD SVG 1.1//EN" "http://www.w3.org/Graphics/SVG/1.1/DTD/svg11.dtd"><svg class="icon" width="200px" height="200.00px" viewBox="0 0 1024 1024" version="1.1" xmlns="http://www.w3.org/2000/svg">
  <path d="M510.401939 776.719515c-46.62303 0-90.14303-18.214788-123.004121-51.075879a17.687273 17.687273 0 0 1 0-25.305212 17.687273 17.687273 0 0 1 25.305212 0c26.205091 26.205091 60.834909 40.401455 98.133334 40.401455 37.313939 0 71.943758-14.196364 98.148848-40.401455a17.687273 17.687273 0 0 1 25.305212 0 17.687273 17.687273 0 0 1 0 25.305212c-33.745455 32.861091-77.265455 51.075879-123.888485 51.075879z" fill="#444444" />
  <path d="M510.401939 865.528242c-119.001212 0-226.024727-72.378182-270.894545-181.185939C193.349818 687.010909 155.151515 649.712485 155.151515 604.423758c0-39.532606 28.858182-72.393697 66.606546-79.049697 18.649212-112.795152 103.470545-206.491152 214.931394-235.364849 9.309091-2.637576 19.083636 3.118545 21.752242 12.877576 2.668606 9.340121-3.10303 19.114667-12.877576 21.767757-102.136242 26.65503-178.951758 115.013818-190.49503 219.818667a17.221818 17.221818 0 0 1-18.214788 15.546182h-1.334303c-24.420848 0-44.404364 19.983515-44.404364 44.838788a44.730182 44.730182 0 0 0 44.838788 44.854303c3.568485 0 7.555879-0.449939 11.108849-1.334303a18.152727 18.152727 0 0 1 21.317818 11.108848c36.414061 102.570667 133.66303 171.411394 242.455273 171.411394 108.807758 0 206.506667-68.840727 242.455272-171.411394 3.10303-8.890182 12.443152-13.777455 21.333334-11.108848 3.987394 0.884364 7.540364 1.334303 11.093333 1.334303a44.730182 44.730182 0 0 0 44.838788-44.838788 44.730182 44.730182 0 0 0-44.838788-44.854303h-1.334303c-9.324606 0-17.314909-6.671515-18.214788-15.546182-11.977697-104.804848-88.358788-193.163636-190.49503-219.818667a18.261333 18.261333 0 0 1-12.877576-21.752242c2.218667-9.774545 11.993212-15.096242 21.767758-12.877576 111.445333 28.858182 196.266667 122.569697 214.915878 235.364849 37.748364 6.640485 66.606545 39.501576 66.606546 79.034182a80.35297 80.35297 0 0 1-80.368485 80.368484h-4.002909c-45.304242 108.807758-152.312242 180.736-271.313455 180.736" fill="#000000" />
  <path d="M510.401939 865.528242c-119.001212 0-226.024727-72.378182-270.894545-181.185939C193.349818 687.010909 155.151515 649.712485 155.151515 604.423758c0-39.532606 28.858182-72.393697 66.606546-79.049697 18.649212-112.795152 103.470545-206.491152 214.931394-235.364849 9.309091-2.637576 19.083636 3.118545 21.752242 12.877576 2.668606 9.340121-3.10303 19.114667-12.877576 21.767757-102.136242 26.65503-178.951758 115.013818-190.49503 219.818667a17.221818 17.221818 0 0 1-18.214788 15.546182h-1.334303c-24.420848 0-44.404364 19.983515-44.404364 44.838788a44.730182 44.730182 0 0 0 44.838788 44.854303c3.568485 0 7.555879-0.449939 11.108849-1.334303a18.152727 18.152727 0 0 1 21.317818 11.108848c36.414061 102.570667 133.66303 171.411394 242.455273 171.411394 108.807758 0 206.506667-68.840727 242.455272-171.411394 3.10303-8.890182 12.443152-13.777455 21.333334-11.108848 3.987394 0.884364 7.540364 1.334303 11.093333 1.334303a44.730182 44.730182 0 0 0 44.838788-44.838788 44.730182 44.730182 0 0 0-44.838788-44.854303h-1.334303c-9.324606 0-17.314909-6.671515-18.214788-15.546182-11.977697-104.804848-88.358788-193.163636-190.49503-219.818667a18.261333 18.261333 0 0 1-12.877576-21.752242c2.218667-9.774545 11.993212-15.096242 21.767758-12.877576 111.445333 28.858182 196.266667 122.569697 214.915878 235.364849 37.748364 6.640485 66.606545 39.501576 66.606546 79.034182a80.35297 80.35297 0 0 1-80.368485 80.368484h-4.002909c-45.304242 108.807758-152.312242 180.736-271.313455 180.736z" fill="#444444" />
  <path d="M370.082909 547.141818a31.092364 31.092364 0 0 0 62.169212 0.015515v-0.015515a31.092364 31.092364 0 0 0-62.169212-0.03103v0.03103z" fill="#000000" />
  <path d="M370.082909 547.141818a31.092364 31.092364 0 0 0 62.169212 0.015515v-0.015515a31.092364 31.092364 0 0 0-62.169212-0.03103v0.03103zM589.886061 547.141818a31.092364 31.092364 0 1 0 62.169212 0 31.092364 31.092364 0 0 0-62.169212 0" fill="#444444" />
  <path d="M589.886061 547.141818a31.092364 31.092364 0 1 0 62.169212 0 31.092364 31.092364 0 0 0-62.169212 0z" fill="#444444" />
  <path d="M517.507879 223.852606c-28.423758 26.65503-58.616242 67.056485-58.616243 117.682424 0 26.639515 23.086545 47.957333 51.510303 47.957334 28.408242 0 51.510303-21.752242 51.510303-47.957334 0-27.089455-8.440242-39.96703-18.649212-55.947636-9.324606-15.111758-20.433455-32.426667-25.755151-61.734788m-7.10594 201.169455c-47.957333 0-87.04-37.313939-87.04-83.487031 0-60.834909 35.079758-120.335515 98.583273-167.408485 5.321697-4.002909 12.427636-4.452848 18.649212-1.784242 5.771636 3.10303 9.774545 9.324606 9.774546 15.980606 0 41.301333 11.093333 59.066182 23.086545 77.730909 11.543273 17.749333 24.420848 38.167273 24.420849 75.481212-0.449939 46.173091-39.517091 83.471515-87.474425 83.471515" fill="#000000" />
  <path d="M517.507879 223.852606c-28.423758 26.65503-58.616242 67.056485-58.616243 117.682424 0 26.639515 23.086545 47.957333 51.510303 47.957334 28.408242 0 51.510303-21.752242 51.510303-47.957334 0-27.089455-8.440242-39.96703-18.649212-55.947636-9.324606-15.111758-20.433455-32.426667-25.755151-61.734788z m-7.10594 201.169455c-47.957333 0-87.04-37.313939-87.04-83.487031 0-60.834909 35.079758-120.335515 98.583273-167.408485 5.321697-4.002909 12.427636-4.452848 18.649212-1.784242 5.771636 3.10303 9.774545 9.324606 9.774546 15.980606 0 41.301333 11.093333 59.066182 23.086545 77.730909 11.543273 17.749333 24.420848 38.167273 24.420849 75.481212-0.449939 46.173091-39.517091 83.471515-87.474425 83.471515z" fill="#444444" />
  <path d="M517.507879 223.852606c-28.423758 26.65503-58.616242 67.056485-58.616243 117.682424 0 26.639515 23.086545 47.957333 51.510303 47.957334 28.408242 0 51.510303-21.752242 51.510303-47.957334 0-27.089455-8.440242-39.96703-18.649212-55.947636-9.324606-15.111758-20.433455-32.426667-25.755151-61.734788z" fill="#50C3A0" />
</svg>