<?xml version="1.0" standalone="no"?>
<!DOCTYPE svg PUBLIC "-//W3C//DTD SVG 1.1//EN" "http://www.w3.org/Graphics/SVG/1.1/DTD/svg11.dtd"><svg class="icon" width="200px" height="200.00px" viewBox="0 0 1024 1024" version="1.1" xmlns="http://www.w3.org/2000/svg">
  <path d="M761.064727 823.233939h-477.24606A44.450909 44.450909 0 0 1 239.398788 778.860606V701.129697a22.186667 22.186667 0 1 1 44.388848 0V778.860606h477.246061V246.070303h-477.246061V345.987879a22.186667 22.186667 0 1 1-44.388848 0V246.070303A44.450909 44.450909 0 0 1 283.803152 201.69697h477.24606a44.450909 44.450909 0 0 1 44.404364 44.388848V778.860606a44.450909 44.450909 0 0 1-44.388849 44.388849" fill="#000000" />
  <path d="M516.887273 379.283394a66.59103 66.59103 0 1 0 0 133.182061 66.59103 66.59103 0 0 0 0-133.182061m0 177.586424c-61.191758 0-110.995394-49.803636-110.995394-110.995394s49.803636-110.995394 110.995394-110.995394 110.979879 49.803636 110.979879 110.995394-49.788121 110.995394-110.979879 110.995394m-233.084121-99.90206h-44.388849a22.186667 22.186667 0 1 1 0-44.388849h44.388849a22.186667 22.186667 0 1 1 0 44.388849m0 88.793212h-44.388849a22.186667 22.186667 0 1 1 0-44.388849h44.388849a22.186667 22.186667 0 1 1 0 44.388849m0 88.793212h-44.388849a22.186667 22.186667 0 1 1 0-44.388849h44.388849a22.186667 22.186667 0 1 1 0 44.388849" fill="#000000" />
  <path d="M650.084848 690.051879c-12.272485 0-22.217697-9.929697-22.217696-22.186667 0-61.207273-49.788121-110.995394-110.979879-110.995394-61.191758 0-110.995394 49.788121-110.995394 110.979879a22.186667 22.186667 0 1 1-44.388849 0c0-85.798788 69.554424-155.384242 155.384243-155.384242 85.798788 0 155.384242 69.569939 155.384242 155.384242 0 12.25697-9.929697 22.186667-22.186667 22.186667" fill="#000000" />
  <path d="M761.064727 823.233939h-477.24606A44.450909 44.450909 0 0 1 239.398788 778.860606V701.129697a22.186667 22.186667 0 1 1 44.388848 0V778.860606h477.246061V246.070303h-477.246061V345.987879a22.186667 22.186667 0 1 1-44.388848 0V246.070303A44.450909 44.450909 0 0 1 283.803152 201.69697h477.24606a44.450909 44.450909 0 0 1 44.404364 44.388848V778.860606a44.450909 44.450909 0 0 1-44.388849 44.388849" fill="#444444" />
  <path d="M516.887273 379.283394a66.59103 66.59103 0 1 0 0 133.182061 66.59103 66.59103 0 0 0 0-133.182061m-110.995394 66.59103c0-61.191758 49.803636-110.995394 110.995394-110.995394s110.979879 49.803636 110.979879 110.995394-49.788121 110.995394-110.979879 110.995394c-61.191758 0-110.995394-49.803636-110.995394-110.995394z m-122.088727 11.093334h-44.388849a22.186667 22.186667 0 1 1 0-44.388849h44.388849a22.186667 22.186667 0 1 1 0 44.388849m0 88.793212h-44.388849a22.186667 22.186667 0 1 1 0-44.388849h44.388849a22.186667 22.186667 0 1 1 0 44.388849m0 88.793212h-44.388849a22.186667 22.186667 0 1 1 0-44.388849h44.388849a22.186667 22.186667 0 1 1 0 44.388849" fill="#444444" />
  <path d="M520.471273 513.56703C563.820606 513.56703 589.575758 480.73697 589.575758 442.181818a69.818182 69.818182 0 0 0-69.818182-69.818182c-38.555152 0-70.17503 27.275636-69.818182 69.818182 0.356848 42.542545 27.198061 71.385212 70.531879 71.385212z" fill="#50C3A0" />
  <path d="M650.084848 690.051879c-12.272485 0-22.217697-9.929697-22.217696-22.186667 0-61.207273-49.788121-110.995394-110.979879-110.995394-61.191758 0-110.995394 49.788121-110.995394 110.979879a22.186667 22.186667 0 1 1-44.388849 0c0-85.798788 69.554424-155.384242 155.384243-155.384242 85.798788 0 155.384242 69.569939 155.384242 155.384242 0 12.25697-9.929697 22.186667-22.186667 22.186667" fill="#444444" />
</svg>