<?xml version="1.0" standalone="no"?>
<!DOCTYPE svg PUBLIC "-//W3C//DTD SVG 1.1//EN" "http://www.w3.org/Graphics/SVG/1.1/DTD/svg11.dtd"><svg class="icon" width="200px" height="200.00px" viewBox="0 0 1024 1024" version="1.1" xmlns="http://www.w3.org/2000/svg">
  <path d="M636.121212 783.142788c0 21.379879-17.392485 38.787879-38.787879 38.787879h-170.666666a38.834424 38.834424 0 0 1-38.787879-38.787879V517.492364h248.242424v265.650424zM462.832485 201.960727c29.525333-5.523394 101.282909 69.895758 126.758788 131.692606v75.248485H434.424242v-94.735515c0-94.270061 17.842424-110.235152 28.408243-112.205576zM426.666667 455.431758h170.666666c18.726788 0 34.397091 13.34303 38.012122 31.030303h-246.69091c3.61503-17.687273 19.285333-31.030303 38.012122-31.030303zM636.121212 418.257455v-93.416728l-1.551515-4.049454c-15.468606-39.998061-103.020606-179.106909-180.286061-164.584728-59.516121 11.108848-66.404848 90.096485-66.404848 157.944243v104.106667c-27.61697 14.149818-46.545455 42.883879-46.545455 75.962181v288.923152c0 47.041939 38.275879 85.333333 85.333334 85.333333h170.666666c47.057455 0 85.333333-38.291394 85.333334-85.333333V494.219636a85.410909 85.410909 0 0 0-46.545455-75.962181z" fill="#444444" />
  <path d="M636.121212 783.142788c0 21.379879-17.392485 38.787879-38.787879 38.787879h-170.666666a38.834424 38.834424 0 0 1-38.787879-38.787879V517.492364h248.242424v265.650424z" fill="#50C3A0" />
</svg>