<?xml version="1.0" standalone="no"?>
<!DOCTYPE svg PUBLIC "-//W3C//DTD SVG 1.1//EN" "http://www.w3.org/Graphics/SVG/1.1/DTD/svg11.dtd"><svg class="icon" width="200px" height="200.00px" viewBox="0 0 1024 1024" version="1.1" xmlns="http://www.w3.org/2000/svg">
  <path d="M728.001939 408.358788h-96.038787a20.262788 20.262788 0 1 0 0 40.541091h96.845575a20.262788 20.262788 0 1 0 0-40.525576h-0.806788z m0-96.038788h-193.318787a19.052606 19.052606 0 0 0-17.82691 19.859394c-0.465455 10.457212 7.416242 19.393939 17.842425 20.262788h193.303272a19.440485 19.440485 0 0 0 18.230303-20.262788 19.052606 19.052606 0 0 0-18.199272-19.859394h-0.031031zM383.937939 550.632727a86.310788 86.310788 0 1 1 87.939879-86.326303 87.133091 87.133091 0 0 1-87.924363 86.326303z m268.675879-36.476121a20.666182 20.666182 0 0 0-18.230303-19.859394c-10.534788 0-22.698667 4.871758-23.908848 13.374061l-46.607515 164.92606-9.728-16.197818a235.054545 235.054545 0 0 0-81.035637-81.051151l-11.357091-5.678546 8.114424-7.695515a128.465455 128.465455 0 0 0 45.785213-97.667879 131.708121 131.708121 0 1 0-263.416243 0 128.868848 128.868848 0 0 0 45.397334 97.667879l10.131393 7.695515-10.131393 5.678546A213.969455 213.969455 0 0 0 186.181818 745.130667c0 12.086303 9.790061 21.876364 21.876364 21.876363 12.163879 0 22.078061-9.728 22.295273-21.876363a170.604606 170.604606 0 0 1 153.6-151.164122c80.213333 8.331636 143.980606 71.090424 153.584484 151.164122 0.046545 4.002909 1.473939 7.866182 4.03394 10.938181a21.876364 21.876364 0 0 0 18.245818 16.213334h4.049455c8.704-0.512 16.290909-6.050909 19.456-14.180849l69.290666-243.960242z" fill="#444444" />
  <path d="M834.575515 320.434424a112.655515 112.655515 0 0 0-109.754182-115.494788H329.231515a113.058909 113.058909 0 0 0-110.219636 115.494788v35.653818c0.217212 12.163879 10.131394 21.876364 22.279757 21.876364a21.876364 21.876364 0 0 0 21.876364-21.876364v-35.653818a69.306182 69.306182 0 0 1 66.063515-72.145454h395.527758a69.306182 69.306182 0 0 1 66.048 72.145454v374.442667a68.887273 68.887273 0 0 1-65.939394 71.726545h-88.048485a21.876364 21.876364 0 1 0 0 43.364849h87.939879a112.655515 112.655515 0 0 0 109.816242-114.688v-374.846061z" fill="#444444" />
  <path d="M383.937939 550.617212a86.310788 86.310788 0 1 1 87.939879-86.326303 87.133091 87.133091 0 0 1-87.924363 86.326303z" fill="#50C3A0" />
</svg>