<?xml version="1.0" standalone="no"?>
<!DOCTYPE svg PUBLIC "-//W3C//DTD SVG 1.1//EN" "http://www.w3.org/Graphics/SVG/1.1/DTD/svg11.dtd"><svg class="icon" width="200px" height="200.00px" viewBox="0 0 1024 1024" version="1.1" xmlns="http://www.w3.org/2000/svg">
  <path d="M694.690909 350.068364v-0.310303c-5.290667 0.155152 0 0.310303 0 0.310303" fill="#000000" />
  <path d="M796.035879 670.968242c0 32.162909-31.604364 64.294788-60.819394 64.294788-22.667636 0-416.73697 0.248242-447.224243 0.248243-30.487273 0-61.207273-33.109333-61.207272-63.906909l0.077575-257.256728c0-32.783515 30.564848-64.775758 61.052122-64.775757h223.604363s0.077576-21.721212 0.077576-42.651152c0-20.852364 20.542061-42.418424 41.006546-42.418424 20.44897 0 81.035636-0.077576 100.848484-0.077576 19.843879 0 40.92897 20.852364 40.92897 42.511515 0 21.162667 0.232727 42.01503 0.232727 42.806303 4.189091-0.093091 14.692848-0.248242 40.525576-0.248242 30.487273 0 60.819394 33.264485 60.819394 64.775758l0.077576 256.698181M755.355152 306.920727h-20.293819c0 3.630545-0.077576 0-0.077575 0h0.077575V286.068364c0-31.511273-31.20097-64.605091-61.052121-64.605091-29.866667 0-113.105455-0.310303-142.972121-0.310303-29.866667 0-60.260848 31.185455-60.260849 64.682666s-0.077576 21.007515-0.077575 21.007516H267.388121C227.979636 306.843152 186.181818 349.820121 186.181818 392.704v300.854303c0 43.52 40.044606 85.224727 81.283879 85.224727H755.277576c41.316848 0 81.283879-42.97697 81.283879-85.845333V392.781576c0.155152-42.340848-41.161697-85.860848-81.206303-85.860849" fill="#444444" />
  <path d="M552.525576 542.72c0-35.777939 27.322182-64.698182 60.974545-64.698182 33.652364 0 60.974545 28.920242 60.974546 64.698182s-27.322182 64.698182-60.974546 64.698182c-33.729939 0-60.974545-28.920242-60.974545-64.698182z m-41.161697 0c0 59.469576 45.738667 107.721697 102.136242 107.721697 56.397576 0 102.043152-48.174545 102.043152-107.721697 0-59.407515-45.645576-107.675152-102.043152-107.675152s-102.136242 48.190061-102.136242 107.675152z" fill="#444444" />
  <path d="M552.525576 542.72c0-35.777939 27.322182-64.698182 60.974545-64.698182 33.652364 0 60.974545 28.920242 60.974546 64.698182s-27.322182 64.698182-60.974546 64.698182c-33.729939 0-60.974545-28.920242-60.974545-64.698182z" fill="#50C3A0" />
  <path d="M328.517818 628.177455h60.974546V457.324606h-60.974546v170.852849z m60.974546-214.047031h-61.595152c-19.688727 0-40.060121 21.410909-40.060121 42.883879v172.187152c0 21.410909 20.293818 42.185697 40.680727 42.185697h60.974546c20.293818 0 40.680727-21.410909 40.680727-42.185697V457.650424c0-21.410909-21.007515-43.52-40.680727-43.52z" fill="#444444" />
  <path d="M328.517818 628.177455h60.974546V457.324606h-60.974546z" fill="#50C3A0" />
</svg>