<?xml version="1.0" standalone="no"?>
<!DOCTYPE svg PUBLIC "-//W3C//DTD SVG 1.1//EN" "http://www.w3.org/Graphics/SVG/1.1/DTD/svg11.dtd"><svg class="icon" width="200px" height="200.00px" viewBox="0 0 1024 1024" version="1.1" xmlns="http://www.w3.org/2000/svg">
  <path d="M747.938909 653.389576v169.50303H272.678788V653.374061c0-48.205576 35.638303-88.126061 81.92-95.107879a252.183273 252.183273 0 0 0 27.042909 40.261818c11.450182 81.609697 102.244848 177.850182 113.245091 189.207273a21.441939 21.441939 0 0 0 30.844121 0c10.969212-11.357091 101.779394-107.597576 113.260606-189.222788a251.485091 251.485091 0 0 0 26.996364-40.246303c46.297212 6.981818 81.95103 46.902303 81.95103 95.107879M510.308848 186.647273c62.743273 0 116.549818 56.242424 138.953697 135.819636H371.339636c22.403879-79.577212 76.210424-135.819636 138.969212-135.819636m86.962425 395.558788c0 48.484848-53.449697 120.242424-86.962425 158.78206-33.512727-38.555152-86.977939-110.312727-86.977939-158.78206 0-60.788364 34.133333-100.072727 86.977939-100.072728 52.844606 0 86.962424 39.284364 86.962425 100.072728m63.146666-177.524364c0 39.951515-7.540364 77.265455-20.495515 109.490424-2.265212 5.632-4.871758 10.891636-7.447272 16.197818-17.283879-55.451152-62.681212-91.151515-122.166304-91.151515-59.500606 0-104.897939 35.700364-122.181818 91.151515-2.575515-5.306182-5.166545-10.565818-7.447272-16.197818-12.939636-32.209455-20.495515-69.538909-20.495516-109.490424 0-13.436121 0.961939-26.530909 2.575516-39.315394H657.842424c1.613576 12.784485 2.56 25.879273 2.56 39.315394m142.972121-60.757333c0-11.838061-9.588364-21.457455-21.441939-21.457455h-88.591515C667.803152 218.810182 595.471515 143.747879 510.293333 143.747879c-85.178182 0-157.494303 75.046788-183.063272 178.734545h-88.591516a21.441939 21.441939 0 0 0 0 42.883879h81.066667c-1.442909 12.862061-2.435879 25.925818-2.435879 39.315394 0 40.680727 7.13697 79.065212 19.456 113.415758-61.238303 14.615273-106.945939 69.647515-106.945939 135.292121v190.929454c0 11.853576 9.588364 21.457455 21.426424 21.457455H769.396364c11.838061 0 21.457455-9.603879 21.457454-21.457455V653.389576c0-65.629091-45.723152-120.661333-106.97697-135.292121a336.058182 336.058182 0 0 0 19.456-113.400243c0-13.389576-0.99297-26.453333-2.435878-39.315394H781.963636c11.838061 0 21.426424-9.619394 21.426425-21.441939" fill="#444444" />
  <path d="M414.223515 439.606303a23.831273 23.831273 0 1 0 0-47.662545 23.831273 23.831273 0 0 0 0 47.662545" fill="#444444" />
  <path d="M597.271273 582.221576c0 48.469333-53.449697 120.226909-86.962425 158.78206-33.512727-38.555152-86.977939-110.312727-86.977939-158.78206 0-60.803879 34.133333-100.072727 86.977939-100.072728 52.844606 0 86.962424 39.268848 86.962425 100.072728" fill="#50C3A0" />
  <path d="M510.308848 186.647273c62.743273 0 116.549818 56.257939 138.953697 135.835151H371.339636c22.403879-79.592727 76.210424-135.835152 138.969212-135.835151" fill="#50C3A0" />
  <path d="M606.394182 439.606303a23.831273 23.831273 0 1 0 0-47.662545 23.831273 23.831273 0 0 0 0 47.662545M488.851394 554.821818v9.510788a21.441939 21.441939 0 1 0 42.899394 0v-9.510788a21.441939 21.441939 0 1 0-42.899394 0" fill="#444444" />
</svg>