<?xml version="1.0" standalone="no"?>
<!DOCTYPE svg PUBLIC "-//W3C//DTD SVG 1.1//EN" "http://www.w3.org/Graphics/SVG/1.1/DTD/svg11.dtd"><svg class="icon" width="200px" height="200.00px" viewBox="0 0 1024 1024" version="1.1" xmlns="http://www.w3.org/2000/svg">
  <path d="M833.877333 600.653576c0-0.54303 0-0.54303 0 0L786.214788 396.210424C773.476848 342.465939 730.267152 313.111273 696.459636 313.111273H641.613576C631.094303 313.095758 622.219636 321.939394 622.219636 332.489697v204.986182c0 10.550303 8.874667 19.393939 19.39394 19.393939h77.017212c10.519273 0 19.393939-8.843636 19.393939-19.393939 0-10.519273-8.874667-19.393939-19.393939-19.39394H661.550545V351.883636h35.467637c12.194909 0 42.108121 13.296485 52.084363 53.201455l47.088485 203.884606c4.995879 26.049939 1.117091 41.006545-12.179394 45.986909-9.976242 3.320242-15.515152 14.413576-12.194909 24.389818 2.777212 8.300606 10.534788 13.296485 18.292364 13.296485 2.218667 0 4.421818-0.558545 6.081939-1.117091 16.073697-6.097455 50.982788-25.491394 37.686303-90.872242" fill="#444444" />
  <path d="M246.582303 306.470788h324.111515c10.534788 0 19.393939-8.859152 19.39394-19.39394 0-10.519273-8.859152-19.393939-19.39394-19.393939H246.582303C211.673212 267.682909 186.181818 290.412606 186.181818 322.544485v311.932121a60.198788 60.198788 0 0 0 29.370182 51.525818c3.320242 1.660121 6.640485 2.777212 9.960727 2.777212 6.656 0 12.753455-3.335758 16.632243-9.417697 5.538909-9.417697 2.761697-21.054061-6.656-26.608484a21.379879 21.379879 0 0 1-10.519273-18.276849V321.985939c0-14.413576 16.601212-15.515152 21.612606-15.515151" fill="#444444" />
  <path d="M664.327758 723.130182a48.826182 48.826182 0 0 1-48.748606-48.764121c0-26.59297 22.155636-48.748606 48.748606-48.748606s48.764121 22.155636 48.764121 48.748606a48.826182 48.826182 0 0 1-48.764121 48.764121M397.296485 679.90497a48.717576 48.717576 0 0 1-48.764121 43.225212 48.826182 48.826182 0 0 1-48.748606-48.764121c0-26.59297 22.155636-48.748606 48.748606-48.748606a48.764121 48.764121 0 0 1 48.764121 46.545454c-0.558545 1.644606-0.558545 2.761697-0.558546 4.421818 0 1.117091 0 2.218667 0.558546 3.320243M664.312242 586.814061c-42.108121 0-77.575758 29.944242-85.876363 70.376727h-144.058182C426.092606 617.301333 390.62497 586.829576 348.516848 586.829576A87.722667 87.722667 0 0 0 260.980364 674.366061a87.722667 87.722667 0 0 0 87.536484 87.552A87.334788 87.334788 0 0 0 433.291636 695.420121h146.276849a87.350303 87.350303 0 0 0 84.759273 66.49794 87.738182 87.738182 0 0 0 87.552-87.552A87.738182 87.738182 0 0 0 664.312242 586.829576" fill="#444444" />
  <path d="M664.343273 723.114667a48.826182 48.826182 0 0 1-48.764121-48.748606c0-26.59297 22.171152-48.764121 48.764121-48.764122 26.59297 0 48.748606 22.171152 48.748606 48.764122a48.826182 48.826182 0 0 1-48.748606 48.748606" fill="#50C3A0" />
  <path d="M397.28097 679.90497a48.717576 48.717576 0 0 1-48.764122 43.209697 48.826182 48.826182 0 0 1-48.748606-48.748606c0-26.59297 22.155636-48.764121 48.748606-48.764122a48.764121 48.764121 0 0 1 48.764122 46.545455c-0.558545 1.660121-0.558545 2.777212-0.558546 4.437333 0 1.101576 0 2.218667 0.558546 3.320243" fill="#50C3A0" />
  <path d="M545.202424 512.574061a21.054061 21.054061 0 1 0 42.108121 0 21.054061 21.054061 0 0 0-42.092606 0" fill="#50C3A0" />
  <path d="M545.202424 438.892606a21.054061 21.054061 0 1 0 42.123637 0 21.054061 21.054061 0 0 0-42.108122 0" fill="#50C3A0" />
  <path d="M545.202424 365.195636a21.054061 21.054061 0 1 0 42.123637 0 21.054061 21.054061 0 0 0-42.108122 0" fill="#50C3A0" />
</svg>