<?xml version="1.0" standalone="no"?>
<!DOCTYPE svg PUBLIC "-//W3C//DTD SVG 1.1//EN" "http://www.w3.org/Graphics/SVG/1.1/DTD/svg11.dtd"><svg class="icon" width="200px" height="200.00px" viewBox="0 0 1024 1024" version="1.1" xmlns="http://www.w3.org/2000/svg">
  <path d="M551.036121 506.414545a64.341333 64.341333 0 0 0 64.124121-64.077575c0-35.203879-28.858182-64.155152-64.124121-64.155152h-100.38303v128.248243h100.38303z m-100.38303 203.465697c0 12.955152-11.977697 25.150061-24.963879 25.150061s-25.212121-12.194909-25.212121-25.150061V353.155879c0-12.955152 12.225939-25.150061 25.212121-25.150061H550.787879c63.022545 0 114.548364 51.432727 114.548363 114.331152s-51.277576 114.269091-114.300121 114.269091l-100.38303 0.06206v153.212121zM512 818.672485c169.363394 0 306.672485-137.309091 306.672485-306.672485 0-169.363394-137.309091-306.672485-306.672485-306.672485-169.363394 0-306.672485 137.309091-306.672485 306.672485 0 169.363394 137.309091 306.672485 306.672485 306.672485zM512 868.848485C314.91103 868.848485 155.151515 709.08897 155.151515 512S314.91103 155.151515 512 155.151515s356.848485 159.759515 356.848485 356.848485-159.759515 356.848485-356.848485 356.848485z" fill="#444444" />
  <path d="M551.036121 506.414545a64.341333 64.341333 0 0 0 64.124121-64.077575c0-35.203879-28.858182-64.155152-64.124121-64.155152h-100.38303v128.248243h100.38303z" fill="#50C3A0" />
</svg>