<?xml version="1.0" standalone="no"?>
<!DOCTYPE svg PUBLIC "-//W3C//DTD SVG 1.1//EN" "http://www.w3.org/Graphics/SVG/1.1/DTD/svg11.dtd"><svg class="icon" width="200px" height="200.00px" viewBox="0 0 1024 1024" version="1.1" xmlns="http://www.w3.org/2000/svg">
  <path d="M542.786715 533.550545a18.587152 18.587152 0 0 1 15.39103 8.254061l137.945213 209.082182 14.801454-25.708606-77.948121-260.06497a18.323394 18.323394 0 0 1 4.530424-18.152727l121.82497-123.004121c14.118788-14.072242 12.675879-41.95297-2.870303-57.452606-14.894545-14.832485-44.249212-16.166788-57.530182-2.932364l-121.731879 122.91103a18.416485 18.416485 0 0 1-18.97503 4.530424L296.359564 303.445333l-26.267152 15.049697 208.399515 144.896a18.338909 18.338909 0 0 1 3.103031 27.384243l-94.611394 104.184242a18.649212 18.649212 0 0 1-14.81697 6.019879l-92.563394-5.849212-8.73503 6.050909 92.470303 49.803636c3.61503 1.939394 6.454303 5.026909 8.098909 8.781576l37.701818 85.47297 6.62497-11.558788 1.923878-84.309333c0.124121-4.980364 2.280727-9.712485 5.957819-13.079273l106.682181-97.900606a18.46303 18.46303 0 0 1 12.458667-4.840728z m-135.850667 270.723879l-0.992969-0.015515a18.40097 18.40097 0 0 1-15.872-10.953697l-49.803637-112.996848-113.307151-61.021091A18.338909 18.338909 0 0 1 225.222594 588.024242L263.855321 561.307152c3.428848-2.389333 7.478303-3.459879 11.682909-3.258182l90.096485 5.709575 74.627879-82.168242L225.191564 332.039758a18.338909 18.338909 0 0 1 1.365333-30.983758L285.188655 267.481212c4.57697-2.606545 10.053818-3.118545 15.034181-1.489454l258.823758 86.543515 113.757091-114.843152C686.069139 224.457697 704.547685 217.212121 724.888048 217.212121c21.752242 0 42.744242 8.502303 57.623273 23.334788 29.990788 29.851152 31.371636 80.92703 2.947879 109.288727l-114.067394 115.184485 77.110303 257.210182c1.442909 4.809697 0.837818 10.022788-1.675636 14.398061l-33.667879 58.43006a18.46303 18.46303 0 0 1-15.406546 9.216 19.037091 19.037091 0 0 1-15.93406-8.269576l-142.506667-215.939878-84.960969 77.963636-1.861819 81.159758a18.354424 18.354424 0 0 1-2.435878 8.73503l-27.151516 47.13503a18.447515 18.447515 0 0 1-15.980606 9.216z" fill="#3E3A39" />
  <path d="M545.036412 533.690182c5.368242 0.651636 10.162424 3.61503 13.141333 8.114424l137.945213 209.082182 14.801454-25.708606-77.948121-260.06497a18.323394 18.323394 0 0 1 4.530424-18.152727l121.82497-123.004121c14.118788-14.072242 12.675879-41.95297-2.870303-57.452606-14.894545-14.832485-44.249212-16.166788-57.530182-2.932364l-121.731879 122.91103a18.416485 18.416485 0 0 1-18.97503 4.530424L296.359564 303.445333l-26.267152 15.049697 208.399515 144.896a18.338909 18.338909 0 0 1 3.103031 27.384243l48.717575 47.631515a18.46303 18.46303 0 0 1 14.723879-4.716606z" fill="#50C3A0" />
</svg>