<?xml version="1.0" standalone="no"?>
<!DOCTYPE svg PUBLIC "-//W3C//DTD SVG 1.1//EN" "http://www.w3.org/Graphics/SVG/1.1/DTD/svg11.dtd"><svg class="icon" width="200px" height="200.00px" viewBox="0 0 1024 1024" version="1.1" xmlns="http://www.w3.org/2000/svg">
  <path d="M322.606545 393.883152a90.236121 90.236121 0 0 1 90.143031-90.143031c18.447515 0 35.638303 5.632 49.958788 15.142788a89.956848 89.956848 0 0 1 40.168727 75.000243 90.236121 90.236121 0 0 1-90.14303 90.14303c-7.19903 0-14.165333-0.961939-20.898909-2.544485-39.687758-9.510788-69.228606-45.071515-69.228607-87.598545m220.268607 0C542.875152 322.125576 484.507152 263.757576 412.749576 263.757576S282.624 322.125576 282.624 393.883152s58.368 130.125576 130.125576 130.125575 130.125576-58.368 130.125576-130.125575m322.187636 246.318545a177.524364 177.524364 0 0 0-173.847273-138.286545c-30.657939 0-60.912485 7.912727-87.443394 22.884848a19.93697 19.93697 0 0 0-7.602424 27.244606 19.952485 19.952485 0 0 0 27.244606 7.602424 138.767515 138.767515 0 0 1 67.801212-17.733818 137.69697 137.69697 0 0 1 134.873212 107.240727c2.141091 9.262545 10.395152 15.515152 19.487031 15.515152a19.93697 19.93697 0 0 0 19.48703-24.467394M216.250182 623.088485a263.292121 263.292121 0 0 0-60.586667 116.580848 20.045576 20.045576 0 0 0 15.049697 24.00194c1.489455 0.310303 2.994424 0.558545 4.499394 0.558545a20.014545 20.014545 0 0 0 19.48703-15.515151 223.806061 223.806061 0 0 1 51.401697-98.940122 20.107636 20.107636 0 0 0-1.504969-28.268606 20.123152 20.123152 0 0 0-28.346182 1.582546m61.843394-50.920727c-2.296242 1.349818-4.57697 2.761697-6.795637 4.18909a19.983515 19.983515 0 0 0-6.112969 27.648 19.905939 19.905939 0 0 0 27.648 6.097455l5.787151-3.568485a19.99903 19.99903 0 0 0 6.966303-27.399757 20.107636 20.107636 0 0 0-27.492848-6.966303m134.656-36.910546c-23.365818 0-46.498909 3.009939-68.825212 9.029818a20.014545 20.014545 0 1 0 10.441697 38.648243 225.792 225.792 0 0 1 58.383515-7.68c104.92897 0 194.59103 71.276606 218.112 173.366303 2.141091 9.278061 10.379636 15.530667 19.48703 15.530666 1.50497 0 3.009939-0.155152 4.499394-0.558545a20.045576 20.045576 0 0 0 15.049697-24.001939c-27.787636-120.304485-133.523394-204.334545-257.148121-204.334546m284.547879-200.300606c13.963636 0 26.624 5.383758 36.212363 14.103273a53.589333 53.589333 0 0 1 17.733818 39.842909 53.992727 53.992727 0 0 1-53.930666 53.930667h-0.155152a54.008242 54.008242 0 0 1-53.775515-53.930667 53.946182 53.946182 0 0 1 53.930667-53.946182m0 147.859394a94.021818 94.021818 0 0 0 93.928727-93.913212 94.021818 94.021818 0 0 0-93.928727-93.944243c-51.789576 0-94.021818 42.139152-94.021818 93.944243 0 51.789576 42.232242 93.928727 94.021818 93.928727" fill="#333333" />
  <path d="M697.31297 334.972121c13.932606 0 26.608485 5.368242 36.196848 14.087758a53.589333 53.589333 0 0 1 17.733818 39.842909 53.992727 53.992727 0 0 1-53.930666 53.930667h-0.155152a54.008242 54.008242 0 0 1-53.775515-53.930667 53.946182 53.946182 0 0 1 53.930667-53.946182" fill="#50C3A0" />
  <path d="M322.606545 393.883152a90.236121 90.236121 0 0 1 90.143031-90.143031c18.447515 0 35.638303 5.632 49.958788 15.142788a89.956848 89.956848 0 0 1 40.168727 75.000243 90.236121 90.236121 0 0 1-90.14303 90.14303c-7.19903 0-14.165333-0.961939-20.898909-2.544485-39.687758-9.510788-69.228606-45.071515-69.228607-87.598545" fill="#50C3A0" />
</svg>