<?xml version="1.0" standalone="no"?>
<!DOCTYPE svg PUBLIC "-//W3C//DTD SVG 1.1//EN" "http://www.w3.org/Graphics/SVG/1.1/DTD/svg11.dtd"><svg class="icon" width="200px" height="200.00px" viewBox="0 0 1024 1024" version="1.1" xmlns="http://www.w3.org/2000/svg">
  <path d="M499.587879 288.861091l-81.92-22.977939s-33.047273 107.799273-92.004849 158.099393c0 0 57.018182 32.892121 56.351031 31.945697a569.840485 569.840485 0 0 0 43.861333-49.089939c13.017212-5.694061 25.662061-11.077818 37.950061-16.089212-15.111758 27.291152-39.641212 68.142545-64.139637 93.913212l34.521212 30.192485s23.505455-22.55903 49.214061-49.850182h29.323636v50.269091h-114.346666v40.261818h114.346666v96.473212c-1.458424-0.077576-2.901333-0.077576-4.313212-0.155151-12.629333-0.651636-32.271515-2.761697-39.951515-14.832485-9.355636-14.754909-2.513455-41.890909-2.032485-58.476606h-78.739394l-2.916848 1.442909s-28.749576 129.365333 83.393939 126.479515c105.006545 2.823758 165.189818-29.199515 194.063515-51.417212l11.481212 42.821818 64.775758-26.872242-43.752727-107.364849-52.642909 16.35297 9.867636 36.801939c-13.560242 10.022788-29.168485 17.594182-45.816242 23.148606v-84.402424h111.491878v-40.246303h-111.491878v-50.269091h111.926303v-40.261818H519.19903c14.30497-17.408 25.6-33.388606 28.563394-43.597576l-34.583272-9.371151c148.635152-53.21697 231.486061-44.06303 230.710303 43.132121v229.996606s8.890182 79.080727-81.687273 73.309091l-48.841697-10.519273-11.496727 46.452364s211.269818 60.353939 228.538181-102.089697c17.268364-162.428121-4.313212-265.929697-4.313212-265.929697s-19.083636-149.907394-347.322182-56.971636c14.041212-24.405333 20.821333-40.308364 20.821334-40.308364z" fill="#444444" />
  <path d="M250.476606 400.989091l-36.724364 56.692364 68.049455 42.325333s45.273212 23.226182 23.769212 66.637576C285.168485 607.806061 186.181818 697.871515 186.181818 697.871515l88.824243 55.389091c61.284848-133.135515 57.406061-115.339636 72.874666-163.234909 15.825455-48.872727 19.161212-86.140121-7.648969-113.012364-34.598788-34.722909-38.337939-37.903515-89.755152-76.024242z" fill="#50C3A0" />
  <path d="M357.500121 321.784242c0-32.007758-26.189576-58.026667-58.461091-58.026666S240.577939 289.776485 240.577939 321.784242c0 32.054303 26.174061 58.026667 58.461091 58.026667 32.271515 0 58.461091-25.972364 58.461091-58.026667z" fill="#50C3A0" />
</svg>