<?xml version="1.0" standalone="no"?>
<!DOCTYPE svg PUBLIC "-//W3C//DTD SVG 1.1//EN" "http://www.w3.org/Graphics/SVG/1.1/DTD/svg11.dtd"><svg class="icon" width="200px" height="200.00px" viewBox="0 0 1024 1024" version="1.1" xmlns="http://www.w3.org/2000/svg">
  <path d="M787.704242 662.372848a24.824242 24.824242 0 0 1-25.072484 25.072485h-150.372849a126.603636 126.603636 0 0 0-75.201939 25.05697V311.497697a75.093333 75.093333 0 0 1 75.201939-75.186424h150.372849a24.824242 24.824242 0 0 1 25.056969 25.056969v401.004606z m-300.761212 50.129455a126.603636 126.603636 0 0 0-75.201939-25.05697h-150.372849a24.824242 24.824242 0 0 1-25.056969-25.072485V261.368242a24.824242 24.824242 0 0 1 25.056969-25.056969h150.372849a75.093333 75.093333 0 0 1 75.201939 75.186424v401.004606zM762.631758 186.181818h-150.372849c-41.115152 0-77.203394 20.045576-100.258909 51.122424C488.944485 206.227394 452.856242 186.181818 411.741091 186.181818h-150.372849A75.093333 75.093333 0 0 0 186.181818 261.368242v401.004606a75.093333 75.093333 0 0 0 75.186424 75.186425h150.372849a75.093333 75.093333 0 0 1 75.201939 75.201939A24.824242 24.824242 0 0 0 512 837.818182a24.824242 24.824242 0 0 0 25.05697-25.05697 75.093333 75.093333 0 0 1 75.201939-75.201939h150.372849A75.093333 75.093333 0 0 0 837.818182 662.372848V261.368242A75.093333 75.093333 0 0 0 762.631758 186.181818z" fill="#444444" />
  <path d="M486.94303 712.502303a126.603636 126.603636 0 0 0-75.201939-25.05697H261.368242a24.824242 24.824242 0 0 1-25.056969-25.072485V261.368242a24.824242 24.824242 0 0 1 25.056969-25.056969h150.372849a75.093333 75.093333 0 0 1 75.201939 75.186424v401.004606z" fill="#50C3A0" />
</svg>