<?xml version="1.0" standalone="no"?>
<!DOCTYPE svg PUBLIC "-//W3C//DTD SVG 1.1//EN" "http://www.w3.org/Graphics/SVG/1.1/DTD/svg11.dtd"><svg class="icon" width="200px" height="200.00px" viewBox="0 0 1024 1024" version="1.1" xmlns="http://www.w3.org/2000/svg">
  <path d="M611.669333 622.359273c-4.204606-6.718061-102.493091-165.91903-71.943757-267.496728 27.958303-92.842667 91.229091-112.329697 139.403636-112.329697 17.795879 0 36.957091 2.668606 56.956121 7.912728 45.071515 11.853576 77.917091 32.193939 97.574788 60.509091 22.745212 32.752485 26.686061 74.534788 11.74497 124.198788-30.595879 101.593212-203.341576 189.579636-210.695758 193.256727l-14.630788 7.400727-8.409212-13.451636z" fill="#50C3A0" />
  <path d="M679.408485 213.410909c-36.243394 0-67.770182 10.550303-93.680485 31.356121-27.523879 22.093576-47.693576 55.280485-59.966061 98.629818-13.85503 48.903758-5.476848 113.726061 24.870788 192.605091a755.122424 755.122424 0 0 0 47.662546 100.770909l16.539151 28.16 28.858182-15.468606a762.011152 762.011152 0 0 0 93.540849-61.315878c67.273697-51.587879 108.388848-102.555152 122.259393-151.474425 8.005818-28.346182 10.907152-54.892606 8.579879-78.972121-2.327273-24.048485-9.805576-45.862788-22.248727-64.899879-11.450182-17.532121-27.089455-32.643879-46.436848-44.869818-16.92703-10.705455-36.879515-19.316364-59.29891-25.568969-21.209212-5.895758-41.627152-8.936727-60.710787-8.936728h0.03103z m0.589576 41.115152c15.934061 0 32.581818 2.637576 49.446787 7.354181 71.152485 19.890424 119.482182 69.08897 92.09794 165.85697-27.399758 96.73697-191.270788 184.537212-191.270788 184.537212s-93.804606-159.806061-66.420364-256.527515c20.898909-73.821091 64.868848-101.158788 116.146425-101.158788v-0.06206z" fill="#434E52" />
  <path d="M598.621091 854.279758a154.484364 154.484364 0 0 1-28.144485-2.730667 15.747879 15.747879 0 0 1-2.420364-0.403394l-1.11709-0.279273-1.132607-0.248242a16.166788 16.166788 0 0 1-2.420363-0.713697c-31.030303-8.704-55.32703-24.948364-70.283637-47.057455-17.330424-25.553455-21.829818-57.204364-13.37406-94.083878 7.043879-30.766545 28.64097-52.751515 49.508848-74.069334 14.848-15.127273 28.858182-29.432242 37.732849-46.390303 16.368485-31.216485 17.361455-43.814788 17.408-45.769697a16.802909 16.802909 0 0 1-0.279273-2.699636c-0.124121-4.623515-0.868848-11.512242-1.784242-13.963637a17.795879 17.795879 0 0 1-0.418909-1.287757 66.870303 66.870303 0 0 0-2.916849-6.609455c-1.086061-2.265212-2.280727-4.809697-3.444364-7.540363l-0.108606-0.217212a170.325333 170.325333 0 0 1-12.194909-54.768485c-1.148121-23.536485 3.413333-36.615758 14.367031-41.161697 4.747636-1.970424 10.084848-1.799758 14.692848 0.480969 2.296242-18.509576 5.290667-32.73697 9.045333-43.10109 2.947879-8.22303 6.516364-14.351515 10.860606-18.788849 5.368242-5.476848 11.993212-8.378182 19.145697-8.378182h0.139637c9.883152 0.046545 17.671758 6.128485 20.324848 15.84097 1.241212 4.654545 1.396364 9.883152 1.598061 17.780364 0.434424 20.976485 2.435879 41.890909 5.957818 62.55709l0.651636 4.111516 2.420364-3.397819a423.036121 423.036121 0 0 0 32.581818-53.604848c2.808242-5.414788 4.840727-9.324606 7.059394-12.505212 5.942303-8.502303 12.986182-10.286545 17.842424-10.286546 3.273697 0.03103 6.516364 0.806788 9.448728 2.265213 15.096242 7.307636 16.647758 24.513939 15.297939 37.655272-1.132606 10.984727-4.63903 25.134545-10.643394 42.837334h0.155152c5.073455 0 9.898667 2.172121 13.265454 6.004363 7.850667 8.921212 6.268121 22.714182-4.995879 43.349334a168.944485 168.944485 0 0 1-34.84703 43.814787l-0.186182 0.155152c-2.218667 1.939394-4.437333 3.708121-6.376727 5.275151a67.739152 67.739152 0 0 0-5.507879 4.639031c-0.294788 0.341333-0.620606 0.667152-0.930909 0.977454-1.877333 1.799758-5.554424 7.64897-7.68 11.791515-0.418909 0.791273-0.884364 1.551515-1.411879 2.280728-0.822303 1.753212-5.430303 13.498182-4.297697 48.826182 0.620606 19.161212 6.981818 38.198303 13.699879 58.352484 9.495273 28.361697 19.331879 57.685333 12.25697 88.451879-7.074909 30.766545-20.790303 54.473697-40.820364 70.407758-18.447515 14.708364-41.239273 22.202182-67.723636 22.202182" fill="#FFFFFF" />
  <path d="M624.686545 315.42303a44.714667 44.714667 0 0 0-31.759515 13.482667c-6.237091 6.252606-11.170909 14.475636-15.096242 25.134545-3.149576 8.564364-5.771636 19.006061-7.943758 31.744-2.513455 0.434424-4.964848 1.148121-7.338666 2.110061-8.874667 3.630545-20.231758 12.25697-23.955394 32.845576a112.60897 112.60897 0 0 0-1.272243 25.274182c1.148121 21.100606 5.864727 41.859879 13.932606 61.44l0.186182 0.449939c1.334303 3.087515 2.684121 5.864727 3.878788 8.269576 0.775758 1.582545 1.784242 3.692606 2.172121 4.623515 0.155152 0.558545 0.325818 1.086061 0.512 1.582545 0.574061 3.10303 0.899879 6.237091 0.99297 9.371152 0 0.961939 0.046545 1.892848 0.155151 2.823757-0.527515 3.196121-3.165091 14.475636-15.980606 38.555152-8.067879 15.127273-21.736727 28.873697-36.274424 43.426909-22.202182 22.295273-47.383273 47.553939-55.761454 83.518061-4.871758 20.914424-5.942303 40.804848-3.180606 59.159272a118.30303 118.30303 0 0 0 19.51806 49.958788c17.687273 25.677576 45.862788 44.435394 81.609697 54.427152 1.365333 0.465455 2.761697 0.868848 4.189091 1.163636l0.884364 0.186182 0.868848 0.217212c1.396364 0.341333 2.823758 0.589576 4.251152 0.760243 10.395152 1.892848 20.945455 2.854788 31.495757 2.901333 30.921697 0 58.786909-9.060848 80.647758-26.220606 23.831273-18.664727 40.060121-45.955879 48.252121-81.097697 8.347152-35.964121-3.072-69.569939-13.187879-99.29697-6.578424-19.362909-12.8-37.670788-13.358545-54.784-0.837818-27.198061 1.737697-38.508606 2.668606-41.596121 0.496485-0.775758 0.961939-1.613576 1.396363-2.482424 1.458424-2.792727 3.134061-5.461333 5.02691-7.990303l1.148121-1.179152c0.775758-0.682667 2.622061-2.141091 4.002909-3.227151 2.156606-1.644606 4.592485-3.599515 7.168-5.787152l0.372364-0.310303a190.060606 190.060606 0 0 0 39.718787-49.152c4.189091-7.354182 7.571394-15.173818 10.022788-23.272727 5.740606-20.138667-0.636121-32.845576-7.012848-39.951515a35.017697 35.017697 0 0 0-5.663031-5.073455c3.708121-12.412121 5.957818-22.993455 6.919758-32.069818 1.179152-11.310545 0.372364-20.867879-2.513454-29.21503a44.187152 44.187152 0 0 0-22.714182-25.848243 39.361939 39.361939 0 0 0-17.066667-4.018424c-7.385212 0-21.364364 2.280727-32.209455 17.547636-2.947879 4.142545-5.368242 8.766061-8.455757 14.630788-2.699636 5.104485-6.004364 11.403636-10.596849 19.176727-0.667152-8.983273-0.837818-16.089212-1.024-21.829818-0.248242-8.936727-0.434424-15.39103-2.265212-22.07806-4.732121-17.097697-19.238788-28.222061-37.003636-28.346182h-0.341333l-0.015516 0.06206z m0 33.109334h0.062061c10.860606 0.046545 1.225697 16.709818 12.536242 84.324848 1.05503 6.330182 1.985939 12.412121 2.792728 18.230303 3.009939 9.929697 8.114424 10.131394 8.114424 10.131394 0.527515 0.201697 1.101576 0.279273 1.675636 0.263758 1.939394 0 5.523394-0.868848 10.131394-5.849212 3.351273-4.887273 6.873212-9.960727 10.596849-15.204849 36.258909-50.517333 38.648242-71.012848 46.017939-71.012848a6.035394 6.035394 0 0 1 2.544485 0.682666c9.69697 4.63903 12.25697 23.846788-13.901576 88.855273-2.466909 6.144-5.057939 12.008727-7.788606 17.609697-2.125576 4.266667-1.815273 6.004364-0.620606 6.733576 17.982061-13.420606 29.773576-29.401212 34.490182-29.401212 0.496485 0 0.961939 0.201697 1.272242 0.57406 4.778667 5.321697-11.015758 40.184242-39.936 65.613576-5.321697 4.545939-10.953697 8.378182-13.901575 11.589818-5.414788 5.08897-11.310545 16.446061-11.310546 16.446061s-9.417697 9.386667-7.773091 60.291879c1.629091 50.920727 38.384485 98.33503 27.384243 145.578666-13.529212 58.104242-51.463758 81.749333-96.318061 81.749334a146.850909 146.850909 0 0 1-27.632485-2.746182v0.077575l-1.458424-0.372363-1.458424-0.310303v-0.062061c-55.420121-14.739394-92.734061-55.125333-76.489697-124.772848 11.015758-47.197091 65.008485-73.883152 89.010424-118.939152 24.001939-45.040485 19.704242-57.561212 19.704242-57.561212s-0.279273-12.76897-2.901333-19.704242c-1.194667-4.204606-4.57697-10.084848-7.354182-16.492606-14.723879-35.436606-13.498182-73.603879-6.857697-76.334546a1.613576 1.613576 0 0 1 0.651637-0.124121c4.592485 0 7.943758 20.542061 18.773333 41.596121 1.396364-0.155152 2.420364-1.551515 2.404849-6.330182 0-6.206061 0.310303-12.598303 0.775757-19.192242 5.275152-69.678545 16.042667-85.907394 26.763636-85.907394v-0.03103z" fill="#434E52" />
  <path d="M389.275152 628.410182c-7.338667-3.692606-180.099879-91.694545-210.680243-193.256727-14.956606-49.648485-11.015758-91.415273 11.74497-124.198788 19.673212-28.299636 52.487758-48.655515 97.559273-60.509091 20.014545-5.244121 39.160242-7.912727 56.971636-7.912728 48.15903 0 111.445333 19.48703 139.388121 112.329697 30.595879 101.577697-67.739152 260.778667-71.928242 267.496728l-8.378182 13.451636-14.677333-7.400727z" fill="#50C3A0" />
  <path d="M344.591515 213.410909c-19.083636 0-39.501576 2.994424-60.695273 8.936727-22.434909 6.268121-42.402909 14.863515-59.283394 25.553455-19.362909 12.25697-34.986667 27.337697-46.436848 44.885333-12.443152 19.083636-19.921455 40.897939-22.248727 64.930909-2.327273 24.048485 0.558545 50.579394 8.579879 78.956606 13.85503 48.888242 54.970182 99.886545 122.243878 151.474425a761.437091 761.437091 0 0 0 93.525334 61.315878l28.842666 15.468606 16.601212-28.16a754.688 754.688 0 0 0 47.662546-100.786424c30.332121-78.863515 38.694788-143.670303 24.855273-192.589576-12.25697-43.349333-32.426667-76.536242-59.950546-98.629818-25.910303-20.790303-57.406061-31.340606-93.66497-31.340606h-0.046545z m-0.868848 44.730182c50.269091 0 93.370182 26.825697 113.803636 99.141818 26.841212 94.828606-65.086061 251.42303-65.086061 251.42303s-160.581818-85.98497-187.42303-180.813575c-26.841212-94.828606 20.51103-143.049697 90.236121-162.536728 16.539152-4.623515 32.845576-7.214545 48.469334-7.214545z" fill="#434E52" />
  <path d="M410.825697 854.279758c-26.484364 0-49.276121-7.447273-67.739152-22.186667-20.014545-15.949576-33.745455-39.656727-40.789333-70.407758-7.043879-30.75103 2.761697-60.043636 12.25697-88.436363 6.749091-20.169697 13.125818-39.206788 13.699879-58.368 1.117091-35.29697-3.475394-47.057455-4.282182-48.826182a15.872 15.872 0 0 1-1.442909-2.311758c-2.110061-4.111515-5.787152-9.960727-7.664485-11.760485a16.290909 16.290909 0 0 1-0.930909-0.977454 67.118545 67.118545 0 0 0-5.507879-4.654546c-1.954909-1.551515-4.173576-3.320242-6.392242-5.244121l-0.186182-0.155151a169.099636 169.099636 0 0 1-34.847031-43.830303c-11.264-20.650667-12.877576-34.428121-4.980363-43.349334 3.366788-3.847758 8.207515-6.050909 13.296485-6.050909h0.155151c-6.019879-17.718303-9.526303-31.868121-10.658909-42.852848-1.365333-13.125818 0.186182-30.316606 15.297939-37.639758a21.566061 21.566061 0 0 1 9.464243-2.265212c4.809697 0 11.900121 1.784242 17.842424 10.286546 2.218667 3.180606 4.235636 7.090424 7.043879 12.505212a423.563636 423.563636 0 0 0 32.550788 53.635878l2.404848 3.413334 0.667152-4.111515c3.521939-20.681697 5.507879-41.596121 5.957818-62.572606 0.217212-7.912727 0.356848-13.125818 1.613576-17.780364 2.637576-9.743515 10.410667-15.794424 20.309333-15.825455h0.124121c7.152485 0 13.777455 2.885818 19.145697 8.362667 4.359758 4.437333 7.912727 10.550303 10.860606 18.773333 3.754667 10.379636 6.749091 24.591515 9.060849 43.132122 4.592485-2.296242 9.929697-2.482424 14.677333-0.512 10.953697 4.545939 15.515152 17.625212 14.382546 41.161697a170.247758 170.247758 0 0 1-12.210425 54.768484l-0.093091 0.232728c-1.163636 2.715152-2.420364 5.275152-3.459878 7.540363-1.086061 2.156606-2.063515 4.344242-2.916849 6.609455a18.385455 18.385455 0 0 1-0.418909 1.303273c-0.899879 2.435879-1.660121 9.324606-1.768727 13.979151a16.585697 16.585697 0 0 1-0.279273 2.684121c0.046545 1.923879 1.008485 14.522182 17.392485 45.769697 8.859152 16.958061 22.900364 31.26303 37.732848 46.390303 20.867879 21.286788 42.46497 43.302788 49.508849 74.069334 8.455758 36.879515 3.956364 68.545939-13.358546 94.083878-14.972121 22.093576-39.268848 38.322424-70.330181 47.07297-0.775758 0.294788-1.551515 0.527515-2.373819 0.698182l-1.132606 0.248242-1.117091 0.279273a15.251394 15.251394 0 0 1-2.482424 0.418909 154.577455 154.577455 0 0 1-28.082424 2.699637" fill="#FFFFFF" />
  <path d="M384.760242 315.376485h-0.341333c-17.764848 0.155152-32.302545 11.23297-37.050182 28.315151-1.846303 6.671515-2.01697 13.125818-2.265212 22.062546-0.155152 5.740606-0.356848 12.862061-1.024 21.829818a452.887273 452.887273 0 0 1-10.596848-19.176727c-3.10303-5.849212-5.523394-10.488242-8.455758-14.630788-10.860606-15.251394-24.824242-17.532121-32.193939-17.532121a39.377455 39.377455 0 0 0-17.066667 3.956363 44.187152 44.187152 0 0 0-22.714182 25.848243c-2.885818 8.347152-3.692606 17.904485-2.513454 29.21503 0.946424 9.107394 3.211636 19.626667 6.919757 32.069818a35.017697 35.017697 0 0 0-5.66303 5.073455c-6.361212 7.121455-12.753455 19.812848-7.012849 39.951515 2.451394 8.098909 5.818182 15.918545 10.022788 23.272727a190.060606 190.060606 0 0 0 39.718788 49.18303l0.372364 0.310303c2.575515 2.203152 5.011394 4.142545 7.168 5.802667 1.380848 1.086061 3.227152 2.52897 3.987394 3.211637l1.163636 1.179151c1.877333 2.52897 3.568485 5.197576 5.011394 7.990303 0.434424 0.837818 0.899879 1.675636 1.396364 2.482424 0.930909 3.10303 3.568485 14.398061 2.684121 41.596122-0.558545 17.113212-6.780121 35.421091-13.374061 54.799515-10.084848 29.696-21.53503 63.363879-13.172363 99.296969 8.192 35.157333 24.420848 62.448485 48.252121 81.128728C359.873939 859.741091 387.754667 868.848485 418.645333 868.848485c10.565818-0.03103 21.100606-1.008485 31.495758-2.901333a32.73697 32.73697 0 0 0 4.251151-0.775758l0.884364-0.201697 0.884364-0.186182c1.411879-0.310303 2.808242-0.682667 4.189091-1.163636 35.731394-10.007273 63.922424-28.796121 81.609697-54.442667a118.287515 118.287515 0 0 0 19.502545-49.958788c2.777212-18.338909 1.675636-38.229333-3.165091-59.143757-8.362667-35.979636-33.559273-61.238303-55.761454-83.533576-14.506667-14.553212-28.19103-28.299636-36.274425-43.442424-12.815515-24.064-15.468606-35.374545-15.996121-38.539637 0.093091-0.930909 0.155152-1.861818 0.155152-2.823757a60.353939 60.353939 0 0 1 0.977454-9.340121l0.527515-1.567031c0.387879-0.930909 1.396364-3.056485 2.172122-4.623515 1.179152-2.482424 2.482424-5.244121 3.878787-8.285091l0.186182-0.465454c8.067879-19.549091 12.76897-40.339394 13.932606-61.44a112.283152 112.283152 0 0 0-1.272242-25.289697c-3.739152-20.588606-15.111758-29.230545-23.970909-32.845576a35.110788 35.110788 0 0 0-7.338667-2.110061c-2.172121-12.753455-4.794182-23.195152-7.928242-31.744-3.925333-10.658909-8.843636-18.881939-15.096243-25.134545a44.683636 44.683636 0 0 0-31.759515-13.498182v-0.015515z m-0.046545 33.093818c10.752 0 21.519515 16.228848 26.748121 85.907394 0.512 6.640485 0.744727 13.001697 0.791273 19.207758 0 4.763152 1.024 6.206061 2.420364 6.330181 10.860606-21.069576 14.165333-41.611636 18.773333-41.611636 0.217212 0 0.434424 0.046545 0.636121 0.139636 6.68703 2.715152 7.881697 40.882424-6.857697 76.334546-2.792727 6.392242-6.159515 12.272485-7.354182 16.492606-2.606545 6.919758-2.885818 19.704242-2.885818 19.704242s-4.313212 12.520727 19.704243 57.561212c23.986424 45.056 78.010182 71.71103 89.010424 118.954667 16.213333 69.647515-21.100606 110.017939-76.489697 124.772849v0.077575l-1.47394 0.294788-1.442909 0.372364v-0.077576a146.432 146.432 0 0 1-27.616969 2.792727c-44.869818 0-82.804364-23.629576-96.333576-81.656242-11.015758-47.212606 25.755152-94.657939 27.384242-145.578667 1.629091-50.936242-7.788606-60.307394-7.788606-60.307394s-5.895758-11.403636-11.29503-16.461575c-2.947879-3.258182-8.579879-7.090424-13.901576-11.605334-28.920242-25.444848-44.714667-60.276364-39.936-65.629091 0.294788-0.387879 0.760242-0.620606 1.256727-0.620606 4.732121 0 16.523636 15.934061 34.536728 29.385697 1.194667-0.729212 1.489455-2.482424-0.620606-6.749091-2.715152-5.585455-5.306182-11.450182-7.788606-17.594181-26.127515-64.977455-23.614061-84.200727-13.901576-88.839758a5.973333 5.973333 0 0 1 2.544485-0.667152c7.369697 0 9.774545 20.495515 46.017939 71.012849 3.754667 5.244121 7.292121 10.302061 10.596849 15.204848 4.623515 4.964848 8.192 5.833697 10.146909 5.833697a4.406303 4.406303 0 0 0 1.660121-0.248242s5.12-0.155152 8.114424-10.146909c0.806788-5.833697 1.737697-11.915636 2.792727-18.214788 11.326061-67.646061 1.675636-84.293818 12.536243-84.340364h0.06206l-0.046545-0.03103z" fill="#434E52" />
  <path d="M486.229333 711.912727c-1.877333-1.892848-46.592-47.010909-91.989333-110.483394-26.825697-37.500121-48.252121-73.588364-63.627636-107.240727-19.750788-43.132121-29.804606-82.664727-29.804606-117.511758 0-71.369697 19.626667-125.502061 58.336969-160.86109 33.512727-30.580364 80.042667-46.095515 138.286546-46.095516 58.259394 0 104.773818 15.515152 138.286545 46.126546 38.710303 35.35903 58.33697 89.475879 58.33697 160.861091 0 34.84703-10.007273 74.379636-29.789091 117.496242-15.437576 33.667879-36.848485 69.756121-63.643152 107.240727-45.381818 63.45697-90.096485 108.57503-91.989333 110.49891l-11.186424 11.248484-11.217455-11.279515z" fill="#50C3A0" />
  <path d="M504.707879 155.151515c-29.773576 0-57.281939 3.708121-81.687273 11.015758-27.554909 8.207515-51.510303 21.131636-71.245576 38.337939-21.364364 18.664727-37.763879 42.371879-48.717575 70.485333-11.170909 28.578909-16.818424 62.138182-16.818425 99.77794 0 36.677818 10.829576 77.85503 32.178425 122.43006 16.290909 34.024727 38.88097 70.361212 67.040969 108.016485 47.414303 63.348364 94.316606 108.559515 96.256 110.467879l23.00897 22.078061 22.993454-22.109091c1.970424-1.877333 48.810667-47.104 96.256-110.436849 28.19103-37.655273 50.734545-74.007273 67.04097-108.016485 21.364364-44.559515 32.178424-85.736727 32.178424-122.445575 0-37.624242-5.647515-71.214545-16.802909-99.762425-10.984727-28.113455-27.368727-51.820606-48.733091-70.485333-19.704242-17.221818-43.675152-30.099394-71.245575-38.353454-24.405333-7.292121-51.898182-11.000242-81.687273-11.000243m0 43.008c98.257455 0 177.927758 45.661091 177.927758 179.23103 0 133.585455-177.927758 304.484848-177.927758 304.484849S326.795636 510.960485 326.795636 377.390545c0-133.585455 79.654788-179.23103 177.927758-179.23103" fill="#434E52" />
  <path d="M510.448485 868.848485c-0.775758 0-1.56703-0.046545-2.342788-0.155152-34.179879-1.458424-63.100121-11.791515-83.812849-29.944242-23.924364-21.02303-36.103758-50.905212-36.103757-88.855273 0-31.635394 17.097697-58.026667 33.636848-83.580121 11.74497-18.152727 22.838303-35.281455 28.004849-53.868606 9.526303-34.210909 7.555879-46.731636 7.13697-48.64a15.484121 15.484121 0 0 1-0.93091-2.575515c-1.210182-4.499394-3.630545-11.062303-5.12-13.234424a12.939636 12.939636 0 0 1-0.744727-1.179152 67.940848 67.940848 0 0 0-4.592485-5.787152c-1.644606-1.970424-3.521939-4.189091-5.352727-6.578424l-0.155151-0.201697a166.229333 166.229333 0 0 1-25.631031-50.734545c-6.764606-22.714182-5.12-36.538182 5.12-43.45794 3.149576-2.172121 6.935273-3.320242 10.814061-3.335757 1.489455 0 2.978909 0.139636 4.421818 0.449939-2.01697-18.649212-2.280727-33.24897-0.853333-44.218182 1.706667-13.141333 7.385212-29.571879 24.715636-33.295515 1.784242-0.387879 3.599515-0.589576 5.430303-0.589575 4.189091 0 14.568727 1.303273 20.293818 13.327515 1.846303 3.878788 3.134061 8.595394 4.918303 15.111757 5.430303 20.386909 12.443152 40.354909 20.976485 59.748849 0.574061 1.287758 1.117091 2.575515 1.660121 3.878788l1.660122-3.878788a409.11903 409.11903 0 0 0 21.038545-59.733334c1.784242-6.516364 3.072-11.23297 4.918303-15.127272 5.725091-12.024242 16.104727-13.34303 20.309333-13.343031 1.815273 0.015515 3.646061 0.217212 5.430303 0.620606 17.314909 3.723636 22.993455 20.154182 24.700122 33.28 1.427394 10.969212 1.148121 25.56897-0.853334 44.218182 1.458424-0.310303 2.932364-0.465455 4.421819-0.465454 3.878788 0 7.695515 1.163636 10.860606 3.335757 10.255515 6.919758 11.869091 20.728242 5.12 43.45794a166.353455 166.353455 0 0 1-25.615516 50.734545l-0.155151 0.201697c-1.830788 2.373818-3.708121 4.608-5.352727 6.562909a67.801212 67.801212 0 0 0-4.592485 5.802667 14.165333 14.165333 0 0 1-0.729212 1.179151c-1.613576 2.327273-4.096 9.262545-5.12 13.218909a15.515152 15.515152 0 0 1-0.930909 2.591031c-0.434424 1.908364-2.389333 14.429091 7.136969 48.655515 5.12 18.571636 16.213333 35.715879 27.989334 53.837576 16.539152 25.553455 33.636848 51.975758 33.636848 83.595636 0 37.934545-12.148364 67.832242-36.103757 88.839758-20.759273 18.152727-49.69503 28.501333-83.87491 29.944242-0.775758 0.108606-1.551515 0.155152-2.327272 0.155152H512l-1.287758 0.03103H510.448485z" fill="#FFFFFF" />
  <path d="M465.004606 329.945212c-3.025455 0-6.050909 0.341333-9.014303 1.008485a44.621576 44.621576 0 0 0-28.12897 20.169697c-4.716606 7.462788-7.695515 16.647758-9.107394 27.958303-1.132606 9.076364-1.318788 19.874909-0.54303 32.845576a35.607273 35.607273 0 0 0-6.718061 3.723636c-7.835152 5.507879-16.989091 16.492606-15.93406 37.422546a112.64 112.64 0 0 0 4.514909 24.979393c5.926788 20.340364 15.266909 39.563636 27.601455 56.878546l0.279272 0.387879c2.01697 2.715152 3.971879 5.135515 5.694061 7.261091 1.101576 1.365333 2.59103 3.196121 3.180606 4.033939 0.263758 0.48097 0.54303 0.961939 0.837818 1.427394 1.241212 2.885818 2.280727 5.864727 3.072 8.905697 0.232727 0.930909 0.512 1.830788 0.837818 2.715151 0.217212 3.227152 0.201697 14.848-6.857697 41.223758-4.437333 16.601212-14.708364 33.047273-25.568969 50.517333-16.647758 26.717091-35.529697 57.018182-35.529697 94.006303 0 21.504 3.506424 41.177212 10.395151 58.461091a119.078788 119.078788 0 0 0 30.487273 44.419879c23.133091 21.100606 54.985697 33.124848 92.237576 34.909091 1.241212 0.155152 2.482424 0.217212 3.739151 0.217212h3.00994c1.241212 0 2.482424-0.077576 3.723636-0.217212 37.251879-1.768727 69.12-13.808485 92.253091-34.909091a119.109818 119.109818 0 0 0 30.518303-44.435394c6.888727-17.283879 10.395152-36.957091 10.395151-58.461091 0-36.988121-18.881939-67.273697-35.529697-94.006303-10.907152-17.423515-21.131636-33.916121-25.568969-50.517333-7.059394-26.375758-7.074909-37.996606-6.857697-41.223758 0.310303-0.884364 0.574061-1.784242 0.837818-2.699636 0.775758-3.04097 1.784242-6.019879 3.025454-8.905697 0.310303-0.465455 0.574061-0.930909 0.837819-1.427394 0.574061-0.822303 2.063515-2.653091 3.165091-4.033939 1.706667-2.125576 3.677091-4.530424 5.69406-7.261091l0.294788-0.387879a189.222788 189.222788 0 0 0 27.61697-56.878546 112.888242 112.888242 0 0 0 4.530424-24.979393c1.039515-20.945455-8.098909-31.914667-15.934061-37.438061a35.343515 35.343515 0 0 0-6.71806-3.708121c0.775758-12.970667 0.589576-23.769212-0.543031-32.845576-1.411879-11.310545-4.406303-20.44897-9.107393-27.958303a44.637091 44.637091 0 0 0-28.12897-20.169697 41.580606 41.580606 0 0 0-8.998788-1.008485c-15.375515 0-28.547879 8.73503-35.250424 23.350303-2.404848 5.244121-3.832242 10.643394-5.787152 18.090667-1.473939 5.585455-3.289212 12.458667-5.988848 21.100606-2.699636-8.626424-4.514909-15.515152-5.988849-21.100606-1.954909-7.478303-3.351273-12.846545-5.787151-18.090667-6.718061-14.630788-19.859394-23.350303-35.250425-23.365818h0.062061z m94.006303 33.202424c0.54303 0 1.086061 0.062061 1.613576 0.186182 10.550303 2.358303 17.408 20.542061 6.671515 89.863758-0.99297 6.361212-2.203152 12.660364-3.61503 18.928485-1.117091 4.654545-0.418909 6.283636 0.930909 6.733575 14.987636-17.687273 22.915879-36.460606 27.492848-36.460606 0.341333 0 0.682667 0.108606 0.96194 0.310303 5.864727 4.142545-1.629091 41.689212-24.126061 72.983273-4.189091 5.647515-8.812606 10.627879-10.907151 14.475636-4.12703 6.17503-7.307636 18.587152-7.307637 18.587152s-7.074909 11.264 6.128485 60.586667c13.218909 49.338182 59.981576 87.443394 59.981576 136.036848 0 71.617939-45.707636 102.710303-103.284364 104.727273v0.077576h-3.009939v-0.093091c-57.623273-1.985939-103.330909-33.078303-103.330909-104.696243 0-48.593455 46.762667-86.683152 59.981575-136.036848 13.218909-49.338182 6.144-60.586667 6.144-60.586667s-3.196121-12.412121-7.323151-18.587151c-2.125576-3.847758-6.780121-8.843636-10.907152-14.460122-22.543515-31.340606-30.052848-68.918303-24.172606-73.060848a1.629091 1.629091 0 0 1 0.96194-0.310303c4.57697 0 12.489697 18.773333 27.508363 36.460606 1.334303-0.449939 2.01697-2.07903 0.930909-6.718061a277.100606 277.100606 0 0 1-3.61503-18.928485c-10.767515-69.321697-3.878788-87.505455 6.656-89.879272a7.214545 7.214545 0 0 1 1.613576-0.186182c8.502303 0 4.840727 19.750788 29.866667 79.747879 2.482424 5.957818 4.778667 11.713939 6.904242 17.252848 4.282182 7.447273 8.424727 8.114424 9.774545 8.114424a3.413333 3.413333 0 0 1 0.915394 0c1.349818 0 5.507879-0.667152 9.774546-8.114424 2.125576-5.538909 4.437333-11.279515 6.904242-17.221818 25.025939-59.981576 21.364364-79.747879 29.866667-79.747879z" fill="#434E52" />
</svg>