<?xml version="1.0" standalone="no"?>
<!DOCTYPE svg PUBLIC "-//W3C//DTD SVG 1.1//EN" "http://www.w3.org/Graphics/SVG/1.1/DTD/svg11.dtd"><svg class="icon" width="200px" height="200.00px" viewBox="0 0 1024 1024" version="1.1" xmlns="http://www.w3.org/2000/svg">
  <path d="M669.595152 608.907636l0.170666-0.155151c-80.399515-80.41503-210.742303-80.41503-291.064242 0a28.858182 28.858182 0 0 0 0 40.92897c11.326061 11.326061 29.66497 11.326061 40.913454 0 57.82497-57.809455 151.489939-57.809455 209.221818 0l0.155152-0.155152a28.873697 28.873697 0 0 0 43.101091 2.404849 28.858182 28.858182 0 0 0 0-40.92897c-0.868848-0.729212-1.675636-1.365333-2.482424-2.094546zM887.536485 352.411152C686.568727 151.458909 360.67297 151.458909 159.736242 352.411152c-11.326061 11.326061-11.326061 29.66497 0 40.928969 11.326061 11.326061 29.680485 11.326061 40.92897 0C379.011879 214.993455 668.245333 214.993455 846.592 393.340121c11.326061 11.326061 29.66497 11.326061 40.92897 0a29.013333 29.013333 0 0 0 0-40.928969z" fill="#444444" />
  <path d="M268.838788 476.873697c-11.326061 11.341576-11.326061 29.680485 0 40.92897 11.357091 11.341576 29.680485 11.341576 40.944485 0 118.039273-118.039273 309.496242-118.039273 427.535515 0 11.326061 11.341576 29.66497 11.341576 40.913454 0 11.341576-11.326061 11.341576-29.66497 0-40.92897-140.629333-140.629333-368.655515-140.629333-509.377939 0z" fill="#50C3A0" />
  <path d="M480.977455 772.545939a43.426909 43.426909 0 1 0 86.838303 0 43.426909 43.426909 0 0 0-86.838303 0z" fill="#50C3A0" />
</svg>