<?xml version="1.0" standalone="no"?>
<!DOCTYPE svg PUBLIC "-//W3C//DTD SVG 1.1//EN" "http://www.w3.org/Graphics/SVG/1.1/DTD/svg11.dtd"><svg class="icon" width="200px" height="200.00px" viewBox="0 0 1024 1024" version="1.1" xmlns="http://www.w3.org/2000/svg">
  <path d="M160.038788 738.598788L160.147394 736.659394a18.618182 18.618182 0 0 0-0.108606 1.970424" fill="#000000" />
  <path d="M814.995394 494.002424c0 13.746424-11.124364 24.870788-24.855273 24.870788h-6.842182a24.731152 24.731152 0 0 1-16.228848-7.633454l-24.017455-26.453334h0.031031a24.746667 24.746667 0 0 1-6.159515-14.987636l-5.430304-75.682909a24.824242 24.824242 0 0 1 21.95394-24.358788h36.693333c13.730909 0 24.855273 11.139879 24.855273 24.870788v99.39006z m-106.899394 71.431758a52.798061 52.798061 0 0 1-3.413333 1.132606l-0.077576 0.015515a49.648485 49.648485 0 0 1-13.901576 1.985939H419.762424a50.532848 50.532848 0 0 1-6.609454-0.465454h-0.217212a49.648485 49.648485 0 0 1-7.07491-1.520485l-0.077575-0.015515a52.937697 52.937697 0 0 1-3.413334-1.132606 24.824242 24.824242 0 0 1-7.571394-36.848485l2.684122-2.963394c4.452848-4.173576 10.410667-6.749091 16.989091-6.749091H695.978667c6.593939 0 12.551758 2.575515 16.989091 6.749091l2.699636 2.963394a24.839758 24.839758 0 0 1-7.571394 36.848485zM436.813576 369.757091l2.932363-49.69503 17.547637-131.987394c0-13.730909 11.139879-24.855273 24.855272-24.855273h146.152728c13.730909 0 24.855273 11.124364 24.855272 24.855273l17.563152 131.987394 2.932364 49.69503 4.390788 74.596848c0 13.715394-11.139879 24.855273-24.870788 24.855273H457.278061A24.855273 24.855273 0 0 1 432.422788 444.353939l4.390788-74.596848zM373.558303 469.798788h-0.015515a24.669091 24.669091 0 0 1-6.17503 14.987636h0.03103l-24.00194 26.453334c-4.158061 4.344242-9.852121 7.19903-16.228848 7.633454h-6.826667a24.855273 24.855273 0 0 1-24.870788-24.855273v-99.39006c0-13.730909 11.124364-24.855273 24.855273-24.855273H357.019152a24.824242 24.824242 0 0 1 21.938424 24.358788l-5.399273 75.667394z m441.437091-149.721212h-88.777697l-23.117576-156.873697A49.710545 49.710545 0 0 0 653.405091 113.477818H457.060848a49.726061 49.726061 0 0 0-49.710545 49.726061l-23.102061 156.858182H295.470545a49.710545 49.710545 0 0 0-49.710545 49.72606v149.069576a49.710545 49.710545 0 0 0 49.710545 49.710545h38.167273c0.387879 0.201697 0.791273 0.418909 1.194667 0.605091a49.710545 49.710545 0 0 0 49.710545 49.136485h147.083637v31.495758a49.726061 49.726061 0 0 0 12.412121 91.19806v28.594425c-6.268121 3.630545-10.814061 9.929697-12.070788 17.376969L346.468848 837.197576a24.855273 24.855273 0 0 0-17.966545 28.392727 37.282909 37.282909 0 0 0 74.084849 7.912727l130.016969-35.219394a37.282909 37.282909 0 1 0 47.755637 0l129.985939 35.219394a37.282909 37.282909 0 1 0 74.084848-7.912727 24.855273 24.855273 0 0 0-17.966545-28.392727l-185.483636-50.238061a24.886303 24.886303 0 0 0-12.070788-17.37697V741.003636a49.726061 49.726061 0 0 0 12.412121-91.19806v-31.495758h144.601212a49.710545 49.710545 0 0 0 49.69503-49.136485l1.210182-0.605091h38.167273a49.710545 49.710545 0 0 0 49.710545-49.710545v-149.069576a49.710545 49.710545 0 0 0-49.710545-49.72606z" fill="#444444" />
  <path d="M436.813576 369.772606l2.947879-49.69503 17.532121-131.987394c0-13.730909 11.139879-24.855273 24.870788-24.855273h146.152727c13.715394 0 24.855273 11.124364 24.855273 24.855273l17.547636 131.987394 2.932364 49.69503 4.390788 74.596849c0 13.715394-11.139879 24.855273-24.870788 24.855272H457.293576a24.855273 24.855273 0 0 1-24.870788-24.855272l4.390788-74.596849z" fill="#50C3A0" />
</svg>